<svg xmlns="http://www.w3.org/2000/svg" viewBox="0 0 500 500" width="100%" height="100%">
 <defs>
 <!-- Tiefer Space-Nebel Hintergrund -->
 <radialGradient id="spaceBg" cx="50%" cy="50%" r="75%">
 <stop offset="0%" stop-color="#C2185B" />
 <stop offset="45%" stop-color="#880E4F" />
 <stop offset="80%" stop-color="#2D0014" />
 <stop offset="100%" stop-color="#0F0005" />
 </radialGradient>

 <!-- Helm-Farbverlauf -->
 <linearGradient id="helmetGrad" x1="0%" y1="0%" x2="0%" y2="100%">
 <stop offset="0%" stop-color="#FF5252" />
 <stop offset="100%" stop-color="#B71C1C" />
 </linearGradient>

 <!-- Orange-Roter Körper/Ohren Verlauf -->
 <linearGradient id="orangeFur" x1="0%" y1="0%" x2="0%" y2="100%">
 <stop offset="0%" stop-color="#FF6347" />
 <stop offset="100%" stop-color="#CC3300" />
 </linearGradient>

 <!-- Glow-Filter für Cyber-Augen -->
 <filter id="cyanGlow" x="-50%" y="-50%" width="200%" height="200%">
 <feGaussianBlur stdDeviation="6" result="blur" />
 <feMerge>
 <feMergeNode in="blur" />
 <feMergeNode in="blur" />
 <feMergeNode in="SourceGraphic" />
 </feMerge>
 </filter>
 </defs>

 <style>
 /* CSS Animationen */
 .breathe {
 transform-origin: 250px 500px;
 animation: breatheAnim 1s infinite ease-in-out;
 }
 .cyber-eye {
 animation: pulseGlow 0.5s infinite alternate ease-in-out;
 }
 .ear-left {
 transform-origin: 170px 200px;
 animation: twitchLeft 1.2s infinite ease-in-out;
 }
 .ear-right {
 transform-origin: 330px 200px;
 animation: twitchRight 1.2s infinite ease-in-out;
 }
 .antenna {
 transform-origin: 250px 100px;
 animation: sway 3s infinite ease-in-out;
 }
 .star1 { animation: twinkle 3s infinite alternate; }
 .star2 { animation: twinkle 4s infinite alternate-reverse; }
 .star3 { animation: twinkle 2s infinite alternate; }

 @keyframes breatheAnim {
 0%, 100% { transform: scaleY(1); }
 50% { transform: scaleY(1.025); }
 }
 @keyframes pulseGlow {
 0% { opacity: 0.5; filter: drop-shadow(0 0 10px #FF2A2A); }
 100% { opacity: 1; filter: drop-shadow(0 0 40px #FF2A2A); }
 }
 @keyframes twitchLeft {
 0%, 90%, 100% { transform: rotate(0deg); }
 93% { transform: rotate(4deg); }
 96% { transform: rotate(-2deg); }
 }
 @keyframes twitchRight {
 0%, 80%, 100% { transform: rotate(0deg); }
 83% { transform: rotate(-5deg); }
 86% { transform: rotate(2deg); }
 }
 @keyframes sway {
 0%, 100% { transform: rotate(-4deg); }
 50% { transform: rotate(4deg); }
 }
 @keyframes twinkle {
 0% { opacity: 0.2; transform: scale(0.8); }
 100% { opacity: 1; transform: scale(1.2); }
 }
 </style>

 <!-- HINTERGRUND -->
 <rect width="500" height="500" fill="url(#spaceBg)" />

 <!-- STERNE -->
 <g fill="#FFF" opacity="0.8">
 <circle cx="80" cy="120" r="1.5" class="star1" />
 <circle cx="40" cy="250" r="2" class="star2" fill="#FFC0CB"/>
 <circle cx="100" cy="380" r="1" class="star3" />
 <circle cx="180" cy="60" r="2" class="star1" />
 <circle cx="380" cy="90" r="1.5" class="star3" />
 <circle cx="450" cy="220" r="2" class="star2" />
 <circle cx="420" cy="400" r="2.5" class="star1" fill="#FFC0CB"/>
 <circle cx="460" cy="150" r="1" />
 <circle cx="70" cy="430" r="1.5" class="star3" />
 </g>

 <!-- ANIMIERTER AVATAR (Atmung) -->
 <g class="breathe">

 <!-- SCHWANZ (rechts unten, am Körper anliegend) -->
 <g>
 <path d="M 370 460 Q 420 360 390 280 Q 450 380 390 480 Z" fill="url(#orangeFur)" stroke="#4A0000" stroke-width="3" stroke-linejoin="round"/>
 <path d="M 383 330 Q 410 335 415 325" fill="none" stroke="#4A0000" stroke-width="3"/>
 <path d="M 380 380 Q 410 385 422 375" fill="none" stroke="#4A0000" stroke-width="3"/>
 <path d="M 375 430 Q 410 435 415 420" fill="none" stroke="#4A0000" stroke-width="3"/>
 </g>

 <!-- KÖRPER / HALS -->
 <path d="M 170 360 L 170 500 L 330 500 L 330 360 Z" fill="url(#orangeFur)" stroke="#4A0000" stroke-width="3"/>
 <path d="M 190 370 L 190 500 L 310 500 L 310 370 Q 250 350 190 370 Z" fill="#FDF5E6" />

 <!-- OHREN (mit Zuck-Animation) -->
 <!-- Linkes Ohr -->
 <g class="ear-left">
 <path d="M 170 200 C 100 200, 110 400, 140 420 C 170 440, 180 300, 170 200 Z" fill="url(#orangeFur)" stroke="#4A0000" stroke-width="3"/>
 <path d="M 160 220 C 120 220, 130 380, 145 400 C 160 420, 170 300, 160 220 Z" fill="#FDF5E6" />
 </g>
 <!-- Rechtes Ohr -->
 <g class="ear-right">
 <path d="M 330 200 C 400 200, 390 400, 360 420 C 330 440, 320 300, 330 200 Z" fill="url(#orangeFur)" stroke="#4A0000" stroke-width="3"/>
 <path d="M 340 220 C 380 220, 370 380, 355 400 C 340 420, 330 300, 340 220 Z" fill="#FDF5E6" />
 </g>

 <!-- GESICHT -->
 <!-- Cremeweiße Grundform -->
 <path d="M 160 200 C 145 320, 160 380, 250 380 C 340 380, 355 320, 340 200 Z" fill="#FDF5E6" stroke="#3E2723" stroke-width="3"/>
 <!-- Kinn-Bart -->
 <path d="M 225 375 L 235 400 L 250 385 L 265 400 L 275 375 Z" fill="#FDF5E6" stroke="#3E2723" stroke-width="3" stroke-linejoin="round"/>

 <!-- HELM -->
 <!-- Basis -->
 <path d="M 155 200 C 155 80, 345 80, 345 200 Z" fill="url(#helmetGrad)" stroke="#3E2723" stroke-width="3"/>
 <line x1="155" y1="200" x2="345" y2="200" stroke="#3E2723" stroke-width="5" stroke-linecap="round"/>
 <!-- Finne rechts anliegend -->
 <path d="M 330 160 L 365 140 L 340 180 Z" fill="#FF5252" stroke="#3E2723" stroke-width="3" stroke-linejoin="round"/>

 <!-- ANTENNE -->
 <g class="antenna">
 <path d="M 250 100 Q 265 75 270 50" fill="none" stroke="#FF5252" stroke-width="5" stroke-linecap="round"/>
 <circle cx="270" cy="50" r="10" fill="#FF5252" stroke="#3E2723" stroke-width="2"/>
 </g>

 <!-- HUNDE-DETAILS -->
 <!-- Geschlossene Augen -->
 <path d="M 180 250 Q 205 260 220 250" fill="none" stroke="#212121" stroke-width="3" stroke-linecap="round"/>
 <path d="M 280 250 Q 295 260 320 250" fill="none" stroke="#212121" stroke-width="3" stroke-linecap="round"/>

 <!-- Nase -->
 <path d="M 235 285 L 265 285 L 250 305 Z" fill="#3E2723" stroke="#3E2723" stroke-width="3" stroke-linejoin="round"/>
 <line x1="242" y1="288" x2="258" y2="288" stroke="#6D4C41" stroke-width="2" stroke-linecap="round"/>

 <!-- Trauriges Maul -->
 <path d="M 190 345 Q 250 325 310 345" fill="none" stroke="#3E2723" stroke-width="12" stroke-linecap="round"/>
 <path d="M 195 345 Q 250 330 305 345" fill="none" stroke="#1A0000" stroke-width="3" stroke-linecap="round"/>

 <!-- CYBER-AUGEN (Helm) -->
 <!-- Links -->
 <g transform="translate(205, 155)">
 <circle cx="0" cy="0" r="18" fill="#FF2A2A" filter="url(#cyanGlow)" class="cyber-eye"/>
 <circle cx="0" cy="0" r="18" fill="none" stroke="#2D0014" stroke-width="4"/>
 </g>
 <!-- Rechts -->
 <g transform="translate(295, 155)">
 <circle cx="0" cy="0" r="18" fill="#FF2A2A" filter="url(#cyanGlow)" class="cyber-eye"/>
 <circle cx="0" cy="0" r="18" fill="none" stroke="#2D0014" stroke-width="4"/>
 </g>

 </g>
</svg>