<svg xmlns="http://www.w3.org/2000/svg" viewBox="0 0 500 500" id="akamaru-avatar">
  <defs>
    <radialGradient id="spaceGradient" cx="50%" cy="50%" r="80%">
      <stop offset="0%" stop-color="#C2185B" />
      <stop offset="20%" stop-color="#DC143C" />
      <stop offset="50%" stop-color="#5a0010" />
      <stop offset="100%" stop-color="#050000" />
    </radialGradient>
    <linearGradient id="furOuter" x1="0%" y1="0%" x2="100%" y2="100%">
      <stop offset="0%" stop-color="#FF6347" />
      <stop offset="40%" stop-color="#FF4500" />
      <stop offset="100%" stop-color="#B71C1C" />
    </linearGradient>
    <linearGradient id="earInner" x1="0%" y1="0%" x2="0%" y2="100%">
      <stop offset="0%" stop-color="#FFF8F0" />
      <stop offset="100%" stop-color="#FFE4E1" />
    </linearGradient>
    <linearGradient id="helmetGradient" x1="0%" y1="0%" x2="100%" y2="100%">
      <stop offset="0%" stop-color="#8B0000" />
      <stop offset="50%" stop-color="#D32F2F" />
      <stop offset="100%" stop-color="#4a0000" />
    </linearGradient>
    <radialGradient id="eyeGlow" cx="50%" cy="50%" r="50%">
      <stop offset="0%" stop-color="#00FFFF" />
      <stop offset="50%" stop-color="#00CED1" />
      <stop offset="100%" stop-color="#00FFFF" stop-opacity="0" />
    </radialGradient>
    <filter id="bloom" x="-150%" y="-150%" width="400%" height="400%">
      <feGaussianBlur stdDeviation="18" result="blur1" />
      <feGaussianBlur stdDeviation="6" result="blur2" />
      <feMerge>
        <feMergeNode in="blur1" />
        <feMergeNode in="blur2" />
        <feMergeNode in="SourceGraphic" />
      </feMerge>
    </filter>
    <filter id="softGlow" x="-50%" y="-50%" width="200%" height="200%">
      <feGaussianBlur stdDeviation="4" result="blur" />
      <feMerge>
        <feMergeNode in="blur" />
        <feMergeNode in="SourceGraphic" />
      </feMerge>
    </filter>
  </defs>

  <style>
    .head-group { animation: breathe 4s ease-in-out infinite; transform-origin: 250px 270px; }
    .chest { animation: breatheChest 4s ease-in-out infinite; transform-origin: 250px 370px; }
    .ear-left { animation: earTwitchLeft 8s ease-in-out infinite; transform-origin: 115px 225px; }
    .ear-right { animation: earTwitchRight 7s ease-in-out infinite; transform-origin: 385px 225px; }
    .antenna-stem { animation: antennaWobble 3s ease-in-out infinite; transform-origin: 250px 155px; }
    .antenna-ball { animation: antennaGlow 2s ease-in-out infinite alternate; }
    .eye-glow { animation: eyePulse 2.5s ease-in-out infinite alternate; }
    .tail { animation: tailWag 5s ease-in-out infinite; transform-origin: 370px 360px; }
    .stars-a { animation: twinkleA 2.5s ease-in-out infinite alternate; }
    .stars-b { animation: twinkleB 3.5s ease-in-out infinite alternate; }
    .stars-c { animation: twinkleC 4.5s ease-in-out infinite alternate; }
    .nebula { animation: nebulaShift 20s ease-in-out infinite alternate; }

    @keyframes breathe { 0%, 100% { transform: scaleY(1) translateY(0); } 50% { transform: scaleY(1.015) translateY(-2px); } }
    @keyframes breatheChest { 0%, 100% { transform: scaleY(1); } 50% { transform: scaleY(1.03); } }
    @keyframes earTwitchLeft { 0%, 90%, 100% { transform: rotate(0deg); } 95% { transform: rotate(-5deg); } }
    @keyframes earTwitchRight { 0%, 85%, 100% { transform: rotate(0deg); } 90% { transform: rotate(5deg); } }
    @keyframes antennaWobble { 0%, 100% { transform: rotate(0deg); } 33% { transform: rotate(4deg); } 66% { transform: rotate(-3deg); } }
    @keyframes antennaGlow { 0% { opacity: 0.7; } 100% { opacity: 1; } }
    @keyframes eyePulse { 0% { opacity: 0.6; filter: blur(0px); } 100% { opacity: 1; filter: blur(1px); } }
    @keyframes tailWag { 0%, 100% { transform: rotate(0deg); } 50% { transform: rotate(-7deg); } }
    @keyframes twinkleA { 0% { opacity: 0.3; } 100% { opacity: 1; } }
    @keyframes twinkleB { 0% { opacity: 0.2; } 100% { opacity: 0.9; } }
    @keyframes twinkleC { 0% { opacity: 0.4; } 100% { opacity: 1; } }
    @keyframes nebulaShift { 0% { transform: translate(0,0); } 100% { transform: translate(-10px,-5px); } }
  </style>

  <rect width="500" height="500" fill="url(#spaceGradient)" />

  <g class="nebula" opacity="0.6">
    <ellipse cx="120" cy="100" rx="180" ry="120" fill="#7a0015" opacity="0.3" filter="url(#softGlow)" />
    <ellipse cx="380" cy="420" rx="200" ry="140" fill="#4a0010" opacity="0.25" filter="url(#softGlow)" />
    <ellipse cx="420" cy="120" rx="140" ry="100" fill="#9e1034" opacity="0.2" filter="url(#softGlow)" />
    <ellipse cx="80" cy="380" rx="160" ry="110" fill="#6a0012" opacity="0.25" filter="url(#softGlow)" />
  </g>

  <g class="stars-a" fill="#FFF" opacity="0.8">
    <circle cx="45" cy="65" r="1.2" opacity="0.7" />
    <circle cx="110" cy="35" r="0.8" opacity="0.5" />
    <circle cx="410" cy="55" r="1.6" opacity="0.9" />
    <circle cx="460" cy="145" r="0.9" opacity="0.6" />
    <circle cx="75" cy="185" r="1.1" opacity="0.8" />
    <circle cx="440" cy="255" r="0.7" opacity="0.5" />
    <circle cx="55" cy="325" r="1.3" opacity="0.9" />
    <circle cx="450" cy="390" r="1.0" opacity="0.7" />
    <circle cx="95" cy="440" r="0.8" opacity="0.5" />
    <circle cx="390" cy="460" r="1.2" opacity="0.8" />
  </g>
  <g class="stars-b" fill="#FFE4E1" opacity="0.7">
    <circle cx="210" cy="25" r="0.9" opacity="0.6" />
    <circle cx="330" cy="115" r="1.0" opacity="0.7" />
    <circle cx="35" cy="245" r="0.8" opacity="0.5" />
    <circle cx="480" cy="35" r="1.0" opacity="0.8" />
    <circle cx="260" cy="475" r="0.9" opacity="0.6" />
    <circle cx="150" cy="150" r="0.6" opacity="0.5" />
    <circle cx="360" cy="200" r="0.7" opacity="0.6" />
    <circle cx="180" cy="410" r="0.8" opacity="0.7" />
  </g>
  <g class="stars-c" fill="#FFF" opacity="0.9">
    <circle cx="300" cy="60" r="1.1" opacity="0.8" />
    <circle cx="70" cy="90" r="0.9" opacity="0.7" />
    <circle cx="430" cy="300" r="1.0" opacity="0.8" />
    <circle cx="120" cy="350" r="0.7" opacity="0.5" />
    <circle cx="320" cy="430" r="1.2" opacity="0.9" />
    <circle cx="250" cy="250" r="0.5" opacity="0.4" />
  </g>

  <g class="tail">
    <path d="M 360 360 C 390 340, 420 310, 440 320 C 450 325, 445 345, 435 355 C 440 370, 455 380, 445 400 C 435 420, 425 430, 430 455" 
          fill="#FF4500" stroke="#3E2723" stroke-width="3" stroke-linejoin="round" />
    <path d="M 410 328 Q 418 340 410 355 M 430 350 Q 438 365 430 380 M 422 390 Q 430 405 422 420" 
          fill="none" stroke="#6a0012" stroke-width="3" stroke-linecap="round" />
  </g>

  <g class="head-group">
    <path class="ear-left" d="M 115 225 C 70 240, 60 300, 75 350 C 85 380, 120 370, 135 335 C 150 300, 145 250, 130 225 Z" 
          fill="url(#furOuter)" stroke="#3E2723" stroke-width="3" />
    <path d="M 115 240 C 90 255, 85 300, 95 335 C 105 355, 125 345, 130 315" 
          fill="url(#earInner)" opacity="0.95" />
    
    <path class="ear-right" d="M 385 225 C 430 240, 440 300, 425 350 C 415 380, 380 370, 365 335 C 350 300, 355 250, 370 225 Z" 
          fill="url(#furOuter)" stroke="#3E2723" stroke-width="3" />
    <path d="M 385 240 C 410 255, 415 300, 405 335 C 395 355, 375 345, 370 315" 
          fill="url(#earInner)" opacity="0.95" />

    <path d="M 150 235 C 150 180, 190 140, 250 140 C 310 140, 350 180, 350 235 L 350 245 L 150 245 Z" 
          fill="url(#helmetGradient)" stroke="#3E2723" stroke-width="3" />
    <path d="M 150 235 L 350 235" fill="none" stroke="#3E2723" stroke-width="3" />
    <path d="M 155 220 C 200 205, 300 205, 345 220" fill="none" stroke="#FF6347" stroke-width="2" opacity="0.5" />
    <path d="M 335 200 L 360 175 L 350 215 Z" fill="#FF4500" stroke="#3E2723" stroke-width="2" />

    <g class="antenna-stem">
      <path d="M 250 155 Q 260 130, 275 115" fill="none" stroke="#3E2723" stroke-width="4" stroke-linecap="round" />
      <circle class="antenna-ball" cx="275" cy="110" r="13" fill="#00FFFF" filter="url(#bloom)" />
    </g>

    <path d="M 150 245 C 130 250, 125 290, 135 330 C 145 365, 180 380, 250 380 C 320 380, 355 365, 365 330 C 375 290, 370 250, 350 245 Z" 
          fill="#FDF5E6" stroke="#3E2723" stroke-width="3" />
    
    <path d="M 160 330 C 180 355, 220 365, 250 365 C 280 365, 320 355, 340 330" 
          fill="#FF4500" opacity="0.08" />

    <g stroke="#3E2723" stroke-width="3" fill="none" stroke-linecap="round">
      <path d="M 170 285 Q 195 295 220 285" />
      <path d="M 280 285 Q 305 295 330 285" />
    </g>

    <ellipse cx="250" cy="325" rx="85" ry="55" fill="#FDF5E6" stroke="#3E2723" stroke-width="2" />
    <path d="M 225 315 Q 250 300 275 315 Q 250 345 225 315" fill="#3E2723" />
    <path d="M 205 345 Q 250 360 295 345" fill="none" stroke="#3E2723" stroke-width="3" stroke-linecap="round" />
    
    <path d="M 230 365 L 242 392 L 250 375 L 258 392 L 270 365" 
          fill="#FDF5E6" stroke="#3E2723" stroke-width="2.5" stroke-linejoin="round" />
    
    <g class="chest">
      <path d="M 210 378 L 222 405 L 234 385 L 246 410 L 258 385 L 270 405 L 282 378" 
            fill="#FDF5E6" stroke="#3E2723" stroke-width="2.5" stroke-linejoin="round" />
    </g>

    <g class="eye-glow">
      <circle cx="205" cy="200" r="24" fill="#0a0000" />
      <circle cx="205" cy="200" r="24" fill="url(#eyeGlow)" opacity="0.9" filter="url(#bloom)" />
      <circle cx="295" cy="200" r="24" fill="#0a0000" />
      <circle cx="295" cy="200" r="24" fill="url(#eyeGlow)" opacity="0.9" filter="url(#bloom)" />
    </g>
  </g>
</svg>