<svg xmlns="http://www.w3.org/2000/svg" viewBox="0 0 500 500" width="100%" height="100%">
  <defs>
    <radialGradient id="spaceBg" cx="50%" cy="50%" r="75%"><stop offset="0%" stop-color="#C2185B" /><stop offset="45%" stop-color="#880E4F" /><stop offset="80%" stop-color="#2D0014" /><stop offset="100%" stop-color="#0F0005" /></radialGradient>
    <linearGradient id="helmetGrad" x1="0%" y1="0%" x2="0%" y2="100%"><stop offset="0%" stop-color="#FF5252" /><stop offset="100%" stop-color="#B71C1C" /></linearGradient>
    <linearGradient id="orangeFur" x1="0%" y1="0%" x2="0%" y2="100%"><stop offset="0%" stop-color="#FF6347" /><stop offset="100%" stop-color="#CC3300" /></linearGradient>
    <filter id="cyanGlow" x="-50%" y="-50%" width="200%" height="200%"><feGaussianBlur stdDeviation="8" result="blur" /><feMerge><feMergeNode in="blur" /><feMergeNode in="SourceGraphic" /></feMerge></filter>
  </defs>
  <style>
    .flicker-eye { animation: flicker 0.15s infinite; }
    .spin-antenna { transform-origin: 250px 100px; animation: spin 0.8s linear infinite; }
    .wag-tail { transform-origin: 320px 300px; animation: wag 0.15s infinite alternate; }
    @keyframes flicker { 0%, 100% { opacity: 1; } 50% { opacity: 0.2; } }
    @keyframes spin { 100% { transform: rotate(360deg); } }
    @keyframes wag { 0% { transform: rotate(0deg); } 100% { transform: rotate(30deg); } }
  </style>
  <rect width="500" height="500" fill="url(#spaceBg)" />
  <g transform="translate(-50, -20) scale(1.2)">
    <g class="wag-tail">
      <path d="M 320 340 Q 420 280 390 200 Q 450 300 340 380 Z" fill="url(#orangeFur)" stroke="#4A0000" stroke-width="3"/>
      <path d="M 355 250 Q 375 255 385 245" fill="none" stroke="#4A0000" stroke-width="3"/>
      <path d="M 350 290 Q 375 295 385 285" fill="none" stroke="#4A0000" stroke-width="3"/>
    </g>
    <g>
      <g><path d="M 170 200 C 100 200, 110 400, 140 420 C 170 440, 180 300, 170 200 Z" fill="url(#orangeFur)" stroke="#4A0000" stroke-width="3"/><path d="M 160 220 C 120 220, 130 380, 145 400 C 160 420, 170 300, 160 220 Z" fill="#FDF5E6" /></g>
      <g><path d="M 330 200 C 400 200, 390 400, 360 420 C 330 440, 320 300, 330 200 Z" fill="url(#orangeFur)" stroke="#4A0000" stroke-width="3"/><path d="M 340 220 C 380 220, 370 380, 355 400 C 340 420, 330 300, 340 220 Z" fill="#FDF5E6" /></g>
      <path d="M 160 200 C 145 320, 160 380, 250 380 C 340 380, 355 320, 340 200 Z" fill="#FDF5E6" stroke="#3E2723" stroke-width="3"/>
      <path d="M 225 375 L 235 400 L 250 385 L 265 400 L 275 375 Z" fill="#FDF5E6" stroke="#3E2723" stroke-width="3" stroke-linejoin="round"/>
      <path d="M 155 200 C 155 80, 345 80, 345 200 Z" fill="url(#helmetGrad)" stroke="#3E2723" stroke-width="3"/>
      <line x1="155" y1="200" x2="345" y2="200" stroke="#3E2723" stroke-width="5" stroke-linecap="round"/>
      <g class="spin-antenna"><path d="M 250 100 L 250 50" fill="none" stroke="#FF5252" stroke-width="5" stroke-linecap="round"/><circle cx="250" cy="50" r="10" fill="#FF5252" stroke="#3E2723" stroke-width="2"/></g>
      <path d="M 180 250 Q 205 260 220 250" fill="none" stroke="#212121" stroke-width="3" stroke-linecap="round"/>
      <path d="M 280 250 Q 295 260 320 250" fill="none" stroke="#212121" stroke-width="3" stroke-linecap="round"/>
      <path d="M 235 285 L 265 285 L 250 305 Z" fill="#3E2723" stroke="#3E2723" stroke-width="3" stroke-linejoin="round"/>
      <path d="M 190 345 Q 250 325 310 345" fill="none" stroke="#3E2723" stroke-width="12" stroke-linecap="round"/>
      <path d="M 195 345 Q 250 330 305 345" fill="none" stroke="#1A0000" stroke-width="3" stroke-linecap="round"/>
      <g transform="translate(205, 155)"><circle cx="0" cy="0" r="18" fill="#00FFFF" filter="url(#cyanGlow)" class="flicker-eye"/><circle cx="0" cy="0" r="18" fill="none" stroke="#2D0014" stroke-width="4"/></g>
      <g transform="translate(295, 155)"><circle cx="0" cy="0" r="18" fill="#00FFFF" filter="url(#cyanGlow)" class="flicker-eye"/><circle cx="0" cy="0" r="18" fill="none" stroke="#2D0014" stroke-width="4"/></g>
    </g>
  </g>
</svg>