<svg xmlns="http://www.w3.org/2000/svg" viewBox="0 0 500 500" width="100%" height="100%">
  <defs>
    <radialGradient id="spaceBg" cx="50%" cy="50%" r="75%"><stop offset="0%" stop-color="#C2185B" /><stop offset="45%" stop-color="#880E4F" /><stop offset="80%" stop-color="#2D0014" /><stop offset="100%" stop-color="#0F0005" /></radialGradient>
    <linearGradient id="helmetGrad" x1="0%" y1="0%" x2="0%" y2="100%"><stop offset="0%" stop-color="#FF5252" /><stop offset="100%" stop-color="#B71C1C" /></linearGradient>
    <linearGradient id="orangeFur" x1="0%" y1="0%" x2="0%" y2="100%"><stop offset="0%" stop-color="#FF6347" /><stop offset="100%" stop-color="#CC3300" /></linearGradient>
    <filter id="cyanGlow" x="-50%" y="-50%" width="200%" height="200%"><feGaussianBlur stdDeviation="5" result="blur" /><feMerge><feMergeNode in="blur" /><feMergeNode in="SourceGraphic" /></feMerge></filter>
  </defs>
  <style>
    .robot-pulse { animation: stepPulse 1s steps(2, end) infinite; }
    .radar-sweep { transform-origin: center; animation: spin 2s linear infinite; }
    @keyframes stepPulse { 0% { opacity: 1; filter: drop-shadow(0 0 15px #00FFFF); } 50% { opacity: 0.4; filter: drop-shadow(0 0 2px #00FFFF); } }
    @keyframes spin { 100% { transform: rotate(360deg); } }
  </style>
  <rect width="500" height="500" fill="url(#spaceBg)" />
  <g transform="translate(-50, -20) scale(1.2)">
    <g>
      <g><path d="M 170 200 C 100 200, 110 400, 140 420 C 170 440, 180 300, 170 200 Z" fill="url(#orangeFur)" stroke="#4A0000" stroke-width="3"/><path d="M 160 220 C 120 220, 130 380, 145 400 C 160 420, 170 300, 160 220 Z" fill="#FDF5E6" /></g>
      <g><path d="M 330 200 C 400 200, 390 400, 360 420 C 330 440, 320 300, 330 200 Z" fill="url(#orangeFur)" stroke="#4A0000" stroke-width="3"/><path d="M 340 220 C 380 220, 370 380, 355 400 C 340 420, 330 300, 340 220 Z" fill="#FDF5E6" /></g>
      <path d="M 160 200 C 145 320, 160 380, 250 380 C 340 380, 355 320, 340 200 Z" fill="#FDF5E6" stroke="#3E2723" stroke-width="3"/>
      <path d="M 225 375 L 235 400 L 250 385 L 265 400 L 275 375 Z" fill="#FDF5E6" stroke="#3E2723" stroke-width="3" stroke-linejoin="round"/>
      <path d="M 155 200 C 155 80, 345 80, 345 200 Z" fill="url(#helmetGrad)" stroke="#3E2723" stroke-width="3"/>
      <line x1="155" y1="200" x2="345" y2="200" stroke="#3E2723" stroke-width="5" stroke-linecap="round"/>
      <g><path d="M 250 100 L 250 50" fill="none" stroke="#FF5252" stroke-width="5" stroke-linecap="round"/><rect x="240" y="40" width="20" height="20" fill="#FF5252" stroke="#3E2723" stroke-width="2"/></g>
      <path d="M 230 110 L 270 110" stroke="#3E2723" stroke-width="3"/>
      <path d="M 180 250 Q 205 260 220 250" fill="none" stroke="#212121" stroke-width="3" stroke-linecap="round"/>
      <path d="M 280 250 Q 295 260 320 250" fill="none" stroke="#212121" stroke-width="3" stroke-linecap="round"/>
      <path d="M 235 285 L 265 285 L 250 305 Z" fill="#3E2723" stroke="#3E2723" stroke-width="3" stroke-linejoin="round"/>
      <path d="M 190 345 L 310 345" fill="none" stroke="#3E2723" stroke-width="12" stroke-linecap="round"/>
      <path d="M 195 345 L 305 345" fill="none" stroke="#1A0000" stroke-width="3" stroke-linecap="round"/>
      <g transform="translate(205, 155)" class="robot-pulse">
        <circle cx="0" cy="0" r="18" fill="#00FFFF" filter="url(#cyanGlow)"/><circle cx="0" cy="0" r="18" fill="none" stroke="#2D0014" stroke-width="4"/>
        <line x1="0" y1="0" x2="0" y2="-18" stroke="#0F0005" stroke-width="2" class="radar-sweep"/>
      </g>
      <g transform="translate(295, 155)" class="robot-pulse">
        <circle cx="0" cy="0" r="18" fill="#00FFFF" filter="url(#cyanGlow)"/><circle cx="0" cy="0" r="18" fill="none" stroke="#2D0014" stroke-width="4"/>
        <line x1="0" y1="0" x2="0" y2="-18" stroke="#0F0005" stroke-width="2" class="radar-sweep"/>
      </g>
    </g>
  </g>
</svg>